<svg width="101" height="107" viewBox="0 0 101 107" fill="none" xmlns="http://www.w3.org/2000/svg">
<g clip-path="url(#clip0)">
<path d="M23.675 41.8701H71.0125C71.8852 41.8701 72.5906 41.1293 72.5906 40.2127C72.5906 39.2962 71.8852 38.5554 71.0125 38.5554H23.675C22.8023 38.5554 22.0969 39.2962 22.0969 40.2127C22.0969 41.1293 22.8023 41.8701 23.675 41.8701Z" fill="#EFEFEF"/>
<path d="M85.2156 56.7783H83.6375V40.2128C83.6375 35.6433 80.0977 31.9258 75.7468 31.9258C75.7437 31.9258 75.7421 31.9275 75.7389 31.9275H18.9485C18.9454 31.9275 18.9438 31.9258 18.9406 31.9258C14.5898 31.9258 11.05 35.6433 11.05 40.2128V98.2145C11.05 102.784 14.5898 106.501 18.9406 106.501H75.7468C80.0977 106.501 83.6375 102.784 83.6375 98.2145V89.9259H85.2156C87.8258 89.9259 89.95 87.6951 89.95 84.9538V61.7504C89.95 59.0091 87.8258 56.7783 85.2156 56.7783ZM83.6375 63.4078V60.093H85.2156C86.0867 60.093 86.7937 60.8356 86.7937 61.7504C86.7937 62.6653 86.0867 63.4078 85.2156 63.4078H83.6375ZM18.9359 35.2406C18.9375 35.2406 18.9391 35.2423 18.9406 35.2423H75.7468C75.7484 35.2423 75.75 35.2406 75.7516 35.2406C78.3602 35.2439 80.4812 37.4731 80.4812 40.2128V46.8837C79.1587 45.8313 77.5301 45.1849 75.7468 45.1849H18.9406C16.3304 45.1849 14.2063 42.9541 14.2063 40.2128C14.2063 37.4731 16.3273 35.2439 18.9359 35.2406ZM80.4812 98.2145C80.4812 100.956 78.357 103.187 75.7468 103.187H18.9406C16.3304 103.187 14.2063 100.956 14.2063 98.2145V46.8008C15.5287 47.8533 17.1574 48.4997 18.9406 48.4997H75.7468C78.357 48.4997 80.4812 50.7305 80.4812 53.4718V63.4078H67.8578C67.8104 63.4078 67.7678 63.4327 67.7205 63.4376C67.6132 63.4476 67.5122 63.4708 67.4096 63.5039C67.3102 63.5354 67.2202 63.5686 67.1303 63.6183C67.045 63.6647 66.9693 63.7227 66.8935 63.7857C66.8052 63.8603 66.7294 63.9365 66.6584 64.0277C66.6268 64.0641 66.5858 64.0857 66.559 64.1271L58.6684 76.1398C58.6573 76.1564 58.6573 76.1746 58.6463 76.1929C58.5847 76.2956 58.5516 76.405 58.5137 76.516C58.4806 76.6105 58.4364 76.6967 58.4206 76.7928C58.4017 76.8956 58.4159 76.9983 58.4174 77.1028C58.419 77.2105 58.408 77.3182 58.4301 77.4226C58.449 77.5154 58.4963 77.5983 58.5295 77.6878C58.5721 77.7989 58.6084 77.9132 58.6747 78.0127C58.6857 78.0292 58.6873 78.0475 58.6983 78.064L66.589 89.2547C66.6095 89.2845 66.641 89.2928 66.6631 89.321C66.772 89.4569 66.9014 89.5629 67.0482 89.6574C67.1003 89.6922 67.1445 89.7386 67.1997 89.7652C67.4017 89.8629 67.6211 89.9259 67.8578 89.9259H80.4812V98.2145ZM85.2156 86.6112H68.6532L61.9067 77.0447L68.6863 66.7226H85.2172C85.7742 66.7226 86.2998 66.6032 86.7953 66.416V84.9538C86.7937 85.8686 86.0867 86.6112 85.2156 86.6112Z" fill="#EFEFEF"/>
<path d="M74.1702 71.6947C71.56 71.6947 69.4359 73.9255 69.4359 76.6668C69.4359 79.4082 71.56 81.639 74.1702 81.639C76.7804 81.639 78.9046 79.4082 78.9046 76.6668C78.9046 73.9255 76.7804 71.6947 74.1702 71.6947ZM74.1702 78.3242C73.2991 78.3242 72.5921 77.5817 72.5921 76.6668C72.5921 75.752 73.2991 75.0095 74.1702 75.0095C75.0414 75.0095 75.7484 75.752 75.7484 76.6668C75.7484 77.5817 75.0414 78.3242 74.1702 78.3242Z" fill="#EFEFEF"/>
<path d="M47.339 25.298C46.4679 25.298 45.7703 26.0388 45.7703 26.9554C45.7703 27.8719 46.4836 28.6127 47.3563 28.6127C48.2275 28.6127 48.9345 27.8719 48.9345 26.9554C48.9345 26.0388 48.2275 25.298 47.3563 25.298H47.339Z" fill="#EFEFEF"/>
<path d="M50.6562 25.0957C51.0602 25.0957 51.4642 24.9333 51.772 24.6101C52.389 23.9621 52.389 22.9146 51.772 22.2666C49.3117 19.6794 45.3048 19.6794 42.8461 22.2666C42.229 22.9146 42.229 23.9621 42.8461 24.6101C43.4631 25.2581 44.4605 25.2581 45.0776 24.6101C46.3069 23.319 48.3111 23.319 49.5405 24.6101C49.8482 24.9333 50.2522 25.0957 50.6562 25.0957Z" fill="#EFEFEF"/>
<path d="M54.0035 21.5805C54.4075 21.5805 54.8115 21.418 55.1192 21.0949C55.7363 20.4468 55.7363 19.3994 55.1192 18.7513C53.0329 16.5586 50.2586 15.3504 47.3091 15.3504C44.3596 15.3504 41.5852 16.5586 39.4989 18.7513C38.8819 19.3994 38.8819 20.4468 39.4989 21.0949C40.116 21.7429 41.1134 21.7429 41.7304 21.0949C43.2217 19.5286 45.2023 18.6651 47.3091 18.6651C49.4159 18.6651 51.3964 19.5286 52.8878 21.0949C53.1955 21.418 53.5995 21.5805 54.0035 21.5805Z" fill="#EFEFEF"/>
<path d="M57.3523 18.0635C57.7563 18.0635 58.1603 17.9011 58.468 17.5779C59.085 16.9298 59.085 15.8824 58.468 15.2343C52.3165 8.77386 42.3017 8.77386 36.1486 15.2343C35.5315 15.8824 35.5315 16.9298 36.1486 17.5779C36.7656 18.2259 37.763 18.2259 38.38 17.5779C43.3022 12.4085 51.3128 12.4085 56.235 17.5779C56.5443 17.9011 56.9483 18.0635 57.3523 18.0635Z" fill="#EFEFEF"/>
<path d="M60.6995 14.5482C61.1035 14.5482 61.5075 14.3857 61.8152 14.0625C62.4323 13.4145 62.4323 12.367 61.8152 11.719C53.8173 3.31941 40.8009 3.31941 32.8014 11.719C32.1843 12.367 32.1843 13.4145 32.8014 14.0625C33.4184 14.7106 34.4158 14.7106 35.0328 14.0625C41.8014 6.95405 52.8152 6.95405 59.5837 14.0625C59.8915 14.3857 60.2955 14.5482 60.6995 14.5482Z" fill="#EFEFEF"/>
<path d="M65.1624 10.5455C65.7794 9.89748 65.7794 8.85002 65.1624 8.20198C60.3917 3.19005 54.0508 0.430511 47.3091 0.430511C40.5689 0.430511 34.228 3.19005 29.4557 8.20198C28.8387 8.85002 28.8387 9.89748 29.4557 10.5455C29.7635 10.8687 30.1675 11.0311 30.5715 11.0311C30.9755 11.0311 31.3795 10.8687 31.6872 10.5455C35.8629 6.16008 41.4116 3.74362 47.3091 3.74362C53.2081 3.74362 58.7552 6.15843 62.9309 10.5455C63.548 11.1936 64.5453 11.1936 65.1624 10.5455Z" fill="#EFEFEF"/>
</g>
<defs>
<clipPath id="clip0">
<rect width="101" height="106.072" fill="white" transform="translate(0 0.428955)"/>
</clipPath>
</defs>
</svg>
