<svg width="112" height="112" viewBox="0 0 112 112" fill="none" xmlns="http://www.w3.org/2000/svg">
<path d="M83.1133 20.86C82.74 20.86 82.39 20.7666 82.04 20.6033C73.1033 15.9833 65.3333 14 56.0467 14C46.7833 14 38.0567 16.2166 30.0533 20.58C28.91 21.1866 27.51 20.79 26.88 19.6466C26.2733 18.5033 26.67 17.1033 27.8133 16.4733C36.5167 11.7366 46.0133 9.33331 56.0467 9.33331C65.9867 9.33331 74.6667 11.5266 84.1867 16.45C85.33 17.0333 85.7733 18.4566 85.19 19.6C84.77 20.3933 83.9533 20.86 83.1133 20.86ZM16.3333 45.36C15.8667 45.36 15.4 45.22 14.98 44.94C13.93 44.1933 13.6733 42.7466 14.42 41.6966C19.04 35.1633 24.9433 30.03 31.9433 26.4133C46.62 18.83 65.4033 18.8533 80.1033 26.4133C87.08 30.0066 91.1448 33.6 96.1655 40.1655C96.9716 41.2196 98.3741 44.8257 97.3241 45.5724C96.2741 46.3191 94.5233 45.29 93.7767 44.24C89.5767 38.36 84.2567 33.74 77.9567 30.52C64.5633 23.6366 47.46 23.66 34.09 30.5666C27.7667 33.8333 22.4233 38.4766 18.2467 44.4033C17.78 45.0333 17.0567 45.36 16.3333 45.36ZM45.5233 101.663C44.9167 101.663 44.3333 101.43 43.8667 100.963C39.83 96.88 37.6367 94.29 34.4867 88.6666C31.2667 82.9266 29.5633 75.9033 29.5633 68.39C29.5633 54.53 41.4167 43.2366 56 43.2366C70.5833 43.2366 82.4367 54.5066 82.4367 68.39C82.4367 69.6733 81.3867 70.7233 80.1033 70.7233C78.82 70.7233 77.77 69.6733 77.77 68.39C77.77 57.0966 68.0167 47.9033 56 47.9033C44.0067 47.9033 34.23 57.0966 34.23 68.39C34.23 75.11 35.7233 81.3166 38.5467 86.38C41.5567 91.7466 43.5633 94.0566 47.1567 97.6733C48.0667 98.5833 48.0667 100.077 47.1333 100.963C46.7133 101.453 46.1067 101.663 45.5233 101.663ZM78.96 93.03C73.4067 93.03 68.53 91.63 64.4933 88.9C57.5633 84.1866 53.41 76.5333 53.41 68.4133C53.41 67.13 54.46 66.08 55.7433 66.08C57.0267 66.08 58.0767 67.13 58.0767 68.4133C58.0767 74.97 61.46 81.1766 67.13 85.0266C70.42 87.2666 74.2933 88.3633 78.96 88.3633C80.08 88.3633 81.97 88.2467 83.8367 87.92C85.0967 87.6866 86.31 88.55 86.5433 89.81C86.7767 91.07 85.9133 92.2833 84.6533 92.5166C81.9233 93.0066 79.6133 93.03 78.96 93.03ZM69.5567 102.667C69.3467 102.667 69.1367 102.643 68.95 102.573C61.5067 100.543 56.6533 97.79 51.6133 92.7733C45.1033 86.2866 41.51 77.63 41.51 68.4133C41.51 60.83 47.95 54.67 55.8833 54.67C63.8167 54.67 70.2567 60.83 70.2567 68.4133C70.2567 73.4066 74.62 77.49 79.9633 77.49C85.3067 77.49 89.67 73.43 89.67 68.4133C89.67 50.82 74.5033 36.5166 55.86 36.5166C42.5833 36.5166 30.4733 43.89 25.0133 55.3233C23.1933 59.1033 22.2833 63.5133 22.2833 68.4133C22.2833 72.0533 22.61 77.7933 25.3867 85.2366C25.83 86.45 25.2233 87.78 24.01 88.2466C22.7967 88.69 21.4667 88.0833 21 86.87C18.7133 80.7333 17.5933 74.7133 17.5933 68.4133C17.5933 62.8133 18.6667 57.7266 20.79 53.3166C27.02 40.2966 40.7867 31.8733 55.8367 31.8733C77.0467 31.8733 94.3133 48.2766 94.3133 68.4366C94.3133 76.02 87.85 82.18 79.94 82.18C72.03 82.18 65.5667 76.02 65.5667 68.4366C65.5667 63.4433 61.2033 59.36 55.86 59.36C50.5167 59.36 46.1533 63.42 46.1533 68.4366C46.1533 76.3933 49.2567 83.8833 54.88 89.4833C59.29 93.87 63.5833 96.2966 70.1633 98.0933C71.4 98.4433 72.1467 99.7266 71.7967 100.963C71.5167 101.99 70.5833 102.667 69.5567 102.667Z" fill="#EFEFEF"/>
</svg>
